<svg width="17" height="17" viewBox="0 0 17 17" fill="none" xmlns="http://www.w3.org/2000/svg">
<path d="M14.6021 0.583374H2.39781C1.39715 0.583374 0.583313 1.39721 0.583313 2.39787V14.6022C0.583313 15.6029 1.39715 16.4167 2.39781 16.4167H14.6021C15.6028 16.4167 16.4166 15.6029 16.4166 14.6022V2.39787C16.4166 1.39721 15.6028 0.583374 14.6021 0.583374ZM15.2291 14.6022C15.2291 14.9482 14.9481 15.2292 14.6021 15.2292H2.39781C2.05185 15.2292 1.77081 14.9482 1.77081 14.6022V4.08096C1.77081 3.735 2.05106 3.45554 2.39623 3.45396H14.6037C14.9489 3.45396 15.2291 3.735 15.2291 4.07937V14.6038V14.6022Z" fill="#5B7083"/>
<path d="M4.5671 6.94437C5.12893 6.94437 5.58439 6.48892 5.58439 5.92708C5.58439 5.36525 5.12893 4.90979 4.5671 4.90979C4.00526 4.90979 3.5498 5.36525 3.5498 5.92708C3.5498 6.48892 4.00526 6.94437 4.5671 6.94437Z" fill="#5B7083"/>
<path d="M4.5671 10.4324C5.12893 10.4324 5.58439 9.97695 5.58439 9.41512C5.58439 8.85328 5.12893 8.39783 4.5671 8.39783C4.00526 8.39783 3.5498 8.85328 3.5498 9.41512C3.5498 9.97695 4.00526 10.4324 4.5671 10.4324Z" fill="#5B7083"/>
<path d="M12.4331 6.94437C12.995 6.94437 13.4504 6.48892 13.4504 5.92708C13.4504 5.36525 12.995 4.90979 12.4331 4.90979C11.8713 4.90979 11.4158 5.36525 11.4158 5.92708C11.4158 6.48892 11.8713 6.94437 12.4331 6.94437Z" fill="#5B7083"/>
<path d="M12.4331 10.4324C12.995 10.4324 13.4504 9.97695 13.4504 9.41512C13.4504 8.85328 12.995 8.39783 12.4331 8.39783C11.8713 8.39783 11.4158 8.85328 11.4158 9.41512C11.4158 9.97695 11.8713 10.4324 12.4331 10.4324Z" fill="#5B7083"/>
<path d="M8.50014 6.94437C9.06198 6.94437 9.51743 6.48892 9.51743 5.92708C9.51743 5.36525 9.06198 4.90979 8.50014 4.90979C7.93831 4.90979 7.48285 5.36525 7.48285 5.92708C7.48285 6.48892 7.93831 6.94437 8.50014 6.94437Z" fill="#5B7083"/>
<path d="M8.50014 10.4324C9.06198 10.4324 9.51743 9.97695 9.51743 9.41512C9.51743 8.85328 9.06198 8.39783 8.50014 8.39783C7.93831 8.39783 7.48285 8.85328 7.48285 9.41512C7.48285 9.97695 7.93831 10.4324 8.50014 10.4324Z" fill="#5B7083"/>
<path d="M4.5671 13.8604C5.12893 13.8604 5.58439 13.4049 5.58439 12.8431C5.58439 12.2813 5.12893 11.8258 4.5671 11.8258C4.00526 11.8258 3.5498 12.2813 3.5498 12.8431C3.5498 13.4049 4.00526 13.8604 4.5671 13.8604Z" fill="#5B7083"/>
<path d="M8.50014 13.8604C9.06198 13.8604 9.51743 13.4049 9.51743 12.8431C9.51743 12.2813 9.06198 11.8258 8.50014 11.8258C7.93831 11.8258 7.48285 12.2813 7.48285 12.8431C7.48285 13.4049 7.93831 13.8604 8.50014 13.8604Z" fill="#5B7083"/>
</svg>
