<svg width="16" height="16" viewBox="0 0 16 16" fill="none" xmlns="http://www.w3.org/2000/svg">
<path d="M9.53451 0.681511L6.42351 0.674011H6.42201C3.14151 0.674011 0.572006 3.24426 0.572006 6.52551C0.572006 9.59901 2.96151 11.93 6.17076 12.053V14.924C6.17076 15.005 6.20376 15.1385 6.26076 15.2263C6.36726 15.395 6.54876 15.4865 6.73476 15.4865C6.83826 15.4865 6.94251 15.458 7.03626 15.398C7.23426 15.272 11.891 12.293 13.1023 11.2685C14.5288 10.061 15.3823 8.29101 15.3845 6.53451V6.52176C15.38 3.24651 12.812 0.681511 9.53451 0.680761V0.681511ZM12.3748 10.4105C11.5243 11.1305 8.72826 12.9643 7.29576 13.8928V11.5025C7.29576 11.192 7.04451 10.94 6.73326 10.94H6.43626C3.69126 10.94 1.69776 9.08301 1.69776 6.52551C1.69776 3.87501 3.77376 1.79901 6.42276 1.79901L9.53301 1.80651H9.53451C12.1835 1.80651 14.2595 3.88101 14.261 6.52851C14.2588 7.96101 13.5545 9.41151 12.3755 10.4105H12.3748Z" fill="#5B7083"/>
</svg>
