<svg width="22" height="22" viewBox="0 0 22 22" fill="none" xmlns="http://www.w3.org/2000/svg">
<path d="M11 21.75C5.072 21.75 0.25 16.928 0.25 11C0.25 5.072 5.072 0.25 11 0.25C16.928 0.25 21.75 5.072 21.75 11C21.75 16.928 16.928 21.75 11 21.75ZM11 1.75C5.9 1.75 1.75 5.9 1.75 11C1.75 16.1 5.9 20.25 11 20.25C16.1 20.25 20.25 16.1 20.25 11C20.25 5.9 16.1 1.75 11 1.75Z" fill="#1DA1F2"/>
<path d="M11 16.115C9.108 16.115 7.367 15.165 6.344 13.571C6.12 13.223 6.221 12.761 6.57 12.536C6.918 12.31 7.382 12.412 7.606 12.762C8.353 13.924 9.622 14.617 11.001 14.617C12.38 14.617 13.649 13.924 14.397 12.763C14.621 12.413 15.085 12.313 15.433 12.538C15.783 12.762 15.883 13.226 15.659 13.574C14.634 15.168 12.893 16.119 11.001 16.119L11 16.115Z" fill="#1DA1F2"/>
<path d="M13.738 9.936C14.5543 9.936 15.216 9.27428 15.216 8.458C15.216 7.64173 14.5543 6.98 13.738 6.98C12.9217 6.98 12.26 7.64173 12.26 8.458C12.26 9.27428 12.9217 9.936 13.738 9.936Z" fill="#1DA1F2"/>
<path d="M8.262 9.936C9.07828 9.936 9.74 9.27428 9.74 8.458C9.74 7.64173 9.07828 6.98 8.262 6.98C7.44572 6.98 6.784 7.64173 6.784 8.458C6.784 9.27428 7.44572 9.936 8.262 9.936Z" fill="#1DA1F2"/>
</svg>
