<svg width="30" height="30" viewBox="0 0 30 30" fill="none" xmlns="http://www.w3.org/2000/svg">
<path d="M26.25 9.1713H21.3375L21.8025 3.8313C21.8475 3.3163 21.465 2.86255 20.95 2.8163C20.4288 2.7788 19.98 3.1538 19.935 3.67005L19.4562 9.17005H11.5562L12.0187 3.83255C12.065 3.3163 11.6813 2.86255 11.1688 2.8163C10.6438 2.7788 10.1975 3.1538 10.1525 3.67005L9.675 9.17005H4.7275C4.21 9.17005 3.79 9.5913 3.79 10.1076C3.79 10.6238 4.21 11.0451 4.7275 11.0451H9.5125L8.825 18.9538H3.75C3.2325 18.9538 2.8125 19.3738 2.8125 19.8913C2.8125 20.4088 3.2325 20.8288 3.75 20.8288H8.6625L8.1975 26.1688C8.1525 26.6838 8.535 27.1376 9.05 27.1838L9.1325 27.1876C9.61375 27.1876 10.0225 26.8188 10.065 26.3301L10.5438 20.8301H18.4438L17.9813 26.1676C17.9363 26.6838 18.3188 27.1376 18.8337 27.1838L18.9163 27.1876C19.3975 27.1876 19.8062 26.8188 19.8487 26.3301L20.3263 20.8301H25.2725C25.7887 20.8301 26.21 20.4088 26.21 19.8926C26.21 19.3763 25.7887 18.9551 25.2725 18.9551H20.4875L21.175 11.0463H26.25C26.7675 11.0463 27.1875 10.6263 27.1875 10.1088C27.1875 9.5913 26.7675 9.1713 26.25 9.1713ZM18.6063 18.9538H10.7062L11.3937 11.0463H19.2938L18.6063 18.9538Z" fill="white"/>
</svg>
