<svg width="28" height="26" viewBox="0 0 28 26" fill="none" xmlns="http://www.w3.org/2000/svg">
<path d="M27.075 7.4625L14.4462 0.64375C14.1675 0.49375 13.8337 0.49375 13.555 0.64375L0.928742 7.4625C0.473742 7.70875 0.303742 8.2775 0.549992 8.73375C0.718742 9.04625 1.04249 9.225 1.37499 9.225C1.52499 9.225 1.67874 9.1875 1.81999 9.1125L2.83874 8.5625L4.87499 22.9538C5.14249 24.4725 6.50999 25.5312 8.19749 25.5312H19.8C21.49 25.5312 22.8562 24.4713 23.1287 22.9225L25.1612 8.56L26.1837 9.1125C26.6387 9.35375 27.2087 9.1875 27.455 8.7325C27.7 8.27875 27.53 7.71 27.075 7.4625ZM21.2775 22.6287C21.1437 23.3862 20.3987 23.6562 19.8025 23.6562H8.19999C7.59999 23.6562 6.85624 23.3862 6.72749 22.6587L4.59999 7.6125L14 2.535L23.4025 7.61L21.2775 22.6287Z" fill="#0F1419"/>
<path d="M9.27502 13.23C9.27502 15.835 11.3938 17.955 14 17.955C16.6063 17.955 18.725 15.835 18.725 13.23C18.725 10.625 16.6063 8.505 14 8.505C11.3938 8.505 9.27502 10.625 9.27502 13.23ZM16.85 13.23C16.85 14.8025 15.5725 16.08 14 16.08C12.4275 16.08 11.15 14.8025 11.15 13.23C11.15 11.6575 12.4275 10.38 14 10.38C15.5725 10.38 16.85 11.6575 16.85 13.23Z" fill="#0F1419"/>
</svg>
