<svg width="30" height="30" viewBox="0 0 30 30" fill="none" xmlns="http://www.w3.org/2000/svg">
<path d="M27.1213 20.585C27.0963 20.565 24.4462 18.535 24.4925 13.0475C24.5175 9.88247 23.4775 7.06998 21.5588 5.12873C19.84 3.38748 17.5125 2.42498 15.0062 2.41248H14.99C12.485 2.42498 10.1575 3.38748 8.4375 5.12998C6.52 7.07123 5.4775 9.88247 5.505 13.0475C5.55125 18.46 2.98 20.5062 2.8775 20.585C2.5525 20.8262 2.42 21.2475 2.54625 21.6325C2.67375 22.0175 3.03375 22.2762 3.43625 22.2762H9.58625C9.71375 25.1637 12.0825 27.4762 14.9987 27.4762C17.915 27.4762 20.2812 25.1637 20.4075 22.2762H26.56C26.9625 22.2762 27.3225 22.0187 27.4475 21.6337C27.5763 21.25 27.4437 20.8275 27.1187 20.5862L27.1213 20.585ZM15 25.5975C13.1187 25.5975 11.5875 24.1262 11.465 22.275H18.535C18.41 24.125 16.8812 25.6 15 25.6V25.5975ZM5.475 20.4C6.4 18.985 7.41 16.615 7.38 13.03C7.3575 10.33 8.185 8.05248 9.77125 6.44623C11.1375 5.06248 12.9962 4.29623 15 4.28748C17.0037 4.29748 18.8587 5.06248 20.225 6.44748C21.8125 8.05373 22.6412 10.33 22.6187 13.0312C22.5887 16.6162 23.6 18.9875 24.525 20.4012H5.475V20.4Z" fill="white"/>
</svg>
