<svg width="22" height="22" viewBox="0 0 22 22" fill="none" xmlns="http://www.w3.org/2000/svg">
<path d="M-37.9 17C-38 16.9 -38 16.9 -38 16.8C-37.9 16.8 -37.9 16.9 -37.9 17ZM18 1.2H16.7V0.899998C16.7 0.499998 16.4 0.0999985 15.9 0.0999985C15.5 0.0999985 15.1 0.399998 15.1 0.899998V1.2H7.7V0.899998C7.7 0.499998 7.4 0.0999985 6.9 0.0999985C6.5 0.0999985 6.1 0.399998 6.1 0.899998V1.2H4.8C3.4 1.2 2.3 2.3 2.3 3.7V16.8C2.3 18.2 3.4 19.3 4.8 19.3H7.7C8.1 19.3 8.5 19 8.5 18.5C8.5 18.1 8.2 17.7 7.7 17.7H4.8C4.2 17.7 3.8 17.2 3.8 16.7V6.9C3.8 6.6 4.2 6.2 4.8 6.2H18C18.6 6.2 19 6.6 19 6.9V8.7C19 9.1 19.3 9.5 19.8 9.5C20.2 9.5 20.6 9.2 20.6 8.7V3.7C20.5 2.3 19.4 1.2 18 1.2ZM19 4.9C18.7 4.8 18.3 4.7 18 4.7H4.8C4.4 4.7 4.1 4.8 3.8 4.9V3.7C3.8 3.1 4.3 2.7 4.8 2.7H6.1V3.2C6.1 3.6 6.4 4 6.9 4C7.3 4 7.7 3.7 7.7 3.2V2.7H15.2V3.2C15.2 3.6 15.5 4 16 4C16.4 4 16.8 3.7 16.8 3.2V2.7H18C18.6 2.7 19 3.2 19 3.7V4.9Z" fill="#1DA1F2"/>
<path d="M15.5 9.39999C12.1 9.39999 9.3 12.2 9.3 15.6C9.3 19 12.1 21.8 15.5 21.8C18.9 21.8 21.7 19 21.7 15.6C21.7 12.2 18.9 9.39999 15.5 9.39999ZM15.5 20.4C12.9 20.4 10.8 18.3 10.8 15.7C10.8 13.1 12.9 11 15.5 11C18.1 11 20.2 13.1 20.2 15.7C20.2 18.2 18.1 20.4 15.5 20.4Z" fill="#1DA1F2"/>
<path d="M18.9 17.7C18.8 17.9 18.5 18.1 18.3 18.1C18.2 18.1 18 18.1 17.9 18L14.8 16V13C14.8 12.6 15.1 12.2 15.6 12.2C16 12.2 16.4 12.5 16.4 13V15.2L18.8 16.7C19 16.9 19.1 17.3 18.9 17.7Z" fill="#1DA1F2"/>
</svg>
