<svg width="17" height="17" viewBox="0 0 17 17" fill="none" xmlns="http://www.w3.org/2000/svg">
<path d="M16.0446 15.2054L13.1471 12.3079C14.196 11.065 14.8333 9.46109 14.8333 7.70834C14.8333 3.77376 11.6429 0.583344 7.70833 0.583344C3.77375 0.583344 0.583328 3.77376 0.583328 7.70834C0.583328 11.6429 3.77375 14.8333 7.70833 14.8333C9.46187 14.8333 11.065 14.1968 12.3063 13.1471L15.2038 16.0446C15.3202 16.1602 15.473 16.2188 15.6234 16.2188C15.7738 16.2188 15.9282 16.161 16.043 16.0446C16.2765 15.8126 16.2765 15.4374 16.0446 15.2054ZM1.77083 7.70834C1.77083 4.4348 4.43479 1.77084 7.70833 1.77084C10.9819 1.77084 13.6458 4.4348 13.6458 7.70834C13.6458 10.9819 10.9819 13.6458 7.70833 13.6458C4.43479 13.6458 1.77083 10.9819 1.77083 7.70834Z" fill="#5B7083"/>
</svg>
